<svg height="504pt" viewBox="0 0 504 504" width="504pt" xmlns="http://www.w3.org/2000/svg"><g fill="#690589"><path d="m400.160156 218.074219h-27.210937c-2.207031 0-4-1.792969-4-4s1.792969-4 4-4h23.210937v-54.695313c0-2.207031 1.792969-4 4-4h49.90625c2.210938 0 4 1.792969 4 4 0 2.207032-1.789062 4-4 4h-45.90625v54.691406c0 2.210938-1.789062 4.003907-4 4.003907zm0 0"/><path d="m450.066406 352.621094h-49.90625c-2.207031 0-4-1.792969-4-4v-54.691406h-23.210937c-2.210938 0-4-1.792969-4-4 0-2.210938 1.789062-4 4-4h27.210937c2.207032 0 4 1.789062 4 4v54.691406h45.90625c2.207032 0 4 1.792968 4 4 0 2.207031-1.789062 4-4 4zm0 0"/><path d="m400.160156 218.074219h-27.210937c-2.207031 0-4-1.792969-4-4s1.792969-4 4-4h23.210937v-54.695313c0-2.207031 1.792969-4 4-4h49.90625c2.210938 0 4 1.792969 4 4 0 2.207032-1.789062 4-4 4h-45.90625v54.691406c0 2.210938-1.789062 4.003907-4 4.003907zm0 0"/><path d="m450.066406 352.621094h-49.90625c-2.207031 0-4-1.792969-4-4v-54.691406h-23.210937c-2.210938 0-4-1.792969-4-4 0-2.210938 1.789062-4 4-4h27.210937c2.207032 0 4 1.789062 4 4v54.691406h45.90625c2.207032 0 4 1.792968 4 4 0 2.207031-1.789062 4-4 4zm0 0"/><path d="m131.050781 218.074219h-27.210937c-2.210938 0-4-1.792969-4-4v-54.695313h-45.90625c-2.207032 0-4-1.792968-4-4 0-2.207031 1.792968-4 4-4h49.90625c2.207031 0 4 1.792969 4 4v54.691406h23.210937c2.210938 0 4 1.792969 4 4 0 2.210938-1.789062 4.003907-4 4.003907zm0 0"/><path d="m103.839844 352.621094h-49.90625c-2.207032 0-4-1.792969-4-4 0-2.207032 1.792968-4 4-4h45.90625v-54.691406c0-2.210938 1.792968-4 4-4h27.210937c2.210938 0 4 1.789062 4 4 0 2.207031-1.789062 4-4 4h-23.210937v54.691406c0 2.207031-1.792969 4-4 4zm0 0"/><path d="m214.074219 135.050781c-2.207031 0-4-1.789062-4-4v-23.210937h-54.695313c-2.207031 0-4-1.792969-4-4v-49.90625c0-2.207032 1.792969-4 4-4 2.207032 0 4 1.792968 4 4v45.90625h54.691406c2.210938 0 4 1.792968 4 4v27.210937c.003907 2.210938-1.789062 4-3.996093 4zm0 0"/><path d="m289.925781 135.050781c-2.207031 0-4-1.789062-4-4v-27.210937c0-2.210938 1.792969-4 4-4h54.695313v-45.90625c0-2.207032 1.789062-4 4-4 2.207031 0 4 1.792968 4 4v49.90625c0 2.207031-1.792969 4-4 4h-54.695313v23.210937c0 2.210938-1.789062 4-4 4zm0 0"/><path d="m214.074219 135.050781c-2.207031 0-4-1.789062-4-4v-23.210937h-54.695313c-2.207031 0-4-1.792969-4-4v-49.90625c0-2.207032 1.792969-4 4-4 2.207032 0 4 1.792968 4 4v45.90625h54.691406c2.210938 0 4 1.792968 4 4v27.210937c.003907 2.210938-1.789062 4-3.996093 4zm0 0"/><path d="m289.925781 135.050781c-2.207031 0-4-1.789062-4-4v-27.210937c0-2.210938 1.792969-4 4-4h54.695313v-45.90625c0-2.207032 1.789062-4 4-4 2.207031 0 4 1.792968 4 4v49.90625c0 2.207031-1.792969 4-4 4h-54.695313v23.210937c0 2.210938-1.789062 4-4 4zm0 0"/><path d="m155.378906 454.066406c-2.207031 0-4-1.792968-4-4v-49.90625c0-2.207031 1.792969-4 4-4h54.691406v-23.210937c0-2.210938 1.792969-4 4-4 2.210938 0 4 1.789062 4 4v27.210937c0 2.207032-1.789062 4-4 4h-54.691406v45.90625c0 2.210938-1.789062 4-4 4zm0 0"/><path d="m348.621094 454.066406c-2.207032 0-4-1.792968-4-4v-45.90625h-54.691406c-2.210938 0-4-1.792968-4-4v-27.210937c0-2.210938 1.789062-4 4-4 2.207031 0 4 1.789062 4 4v23.210937h54.691406c2.207031 0 4 1.792969 4 4v49.90625c0 2.210938-1.792969 4-4 4zm0 0"/><path d="m250.636719 481.035156c-2.207031 0-4-1.792968-4-4v-450.070312c0-2.207032 1.792969-4 4-4 2.210937 0 4 1.792968 4 4v450.070312c0 2.207032-1.789063 4-4 4zm0 0"/><path d="m475.671875 256h-450.070313c-2.207031 0-4-1.792969-4-4s1.792969-4 4-4h450.070313c2.207031 0 4 1.792969 4 4s-1.789063 4-4 4zm0 0"/></g><path d="m352.929688 372.949219h-201.859376c-11.054687 0-20.019531-8.964844-20.019531-20.019531v-201.859376c0-11.054687 8.960938-20.019531 20.019531-20.019531h201.859376c11.054687 0 20.019531 8.960938 20.019531 20.019531v201.859376c0 11.054687-8.964844 20.019531-20.019531 20.019531zm0 0" fill="#7bac51"/><path d="m352.929688 131.050781h-20.019532c11.054688 0 20.019532 8.964844 20.019532 20.019531v201.859376c0 11.054687-8.960938 20.019531-20.019532 20.019531h20.019532c11.054687 0 20.019531-8.960938 20.019531-20.019531v-201.859376c0-11.054687-8.964844-20.019531-20.019531-20.019531zm0 0" fill="#5d8e33"/><path d="m151.070312 372.949219h20.019532c-11.054688 0-20.019532-8.964844-20.019532-20.019531v-201.859376c0-11.054687 8.960938-20.019531 20.019532-20.019531h-20.019532c-11.054687 0-20.019531 8.960938-20.019531 20.019531v201.859376c0 11.054687 8.964844 20.019531 20.019531 20.019531zm0 0" fill="#99ca6f"/><path d="m352.929688 376.949219h-201.859376c-13.246093 0-24.019531-10.773438-24.019531-24.019531v-201.859376c0-13.242187 10.773438-24.019531 24.019531-24.019531h201.859376c13.242187 0 24.019531 10.777344 24.019531 24.019531v201.859376c0 13.246093-10.777344 24.019531-24.019531 24.019531zm-201.859376-241.898438c-8.835937 0-16.019531 7.1875-16.019531 16.019531v201.859376c0 8.835937 7.1875 16.019531 16.019531 16.019531h201.859376c8.832031 0 16.019531-7.1875 16.019531-16.019531v-201.859376c0-8.832031-7.1875-16.019531-16.019531-16.019531zm0 0" fill="#690589"/><path d="m147.066406 196.425781c-2.207031 0-4-1.792969-4-4v-24c0-2.207031 1.792969-4 4-4 2.207032 0 4 1.792969 4 4v24c0 2.207031-1.789062 4-4 4zm0 0" fill="#690589"/><path d="m320.589844 219.738281c0-38.769531-32.167969-70.023437-71.269532-68.535156-35.382812 1.34375-64.285156 30.066406-65.839843 65.441406-1.21875 27.710938 14.023437 51.976563 36.757812 63.882813v40.5625c0 17.542968 14.21875 31.761718 31.761719 31.761718s31.761719-14.21875 31.761719-31.761718v-40.5625c21.882812-11.460938 36.828125-34.375 36.828125-60.789063zm0 0" fill="#fcc24c"/><path d="m249.320312 151.203125c-1.097656.039063-2.191406.109375-3.277343.203125 35.199219 2.910156 62.867187 32.378906 62.867187 68.332031 0 26.414063-14.941406 49.328125-36.824218 60.785157v40.566406c0 15.542968-11.175782 28.457031-25.925782 31.199218 1.898438.351563 3.84375.5625 5.84375.5625 17.539063 0 31.761719-14.222656 31.761719-31.761718v-40.566406c21.882813-11.460938 36.824219-34.371094 36.824219-60.785157 0-38.769531-32.167969-70.023437-71.269532-68.535156zm0 0" fill="#dea42e"/><path d="m254.679688 151.203125c1.097656.039063 2.191406.109375 3.277343.203125-35.199219 2.910156-62.867187 32.378906-62.867187 68.332031 0 26.414063 14.941406 49.328125 36.824218 60.785157v40.566406c0 15.542968 11.175782 28.457031 25.925782 31.199218-1.898438.351563-3.84375.5625-5.84375.5625-17.539063 0-31.761719-14.222656-31.761719-31.761718v-40.566406c-21.882813-11.460938-36.824219-34.371094-36.824219-60.785157 0-38.769531 32.167969-70.023437 71.269532-68.535156zm0 0" fill="#fce06a"/><path d="m220.238281 321.089844c0 17.539062 14.21875 31.761718 31.761719 31.761718s31.761719-14.222656 31.761719-31.761718v-40.566406h-63.523438zm0 0" fill="#ff4397"/><path d="m272.085938 280.523438v40.566406c0 15.542968-11.175782 28.457031-25.925782 31.199218.945313.175782 1.898438.316407 2.867188.410157.921875.085937 1.859375.136719 2.804687.144531.058594 0 .113281.007812.171875.007812 17.539063 0 31.761719-14.222656 31.761719-31.761718v-40.566406zm0 0" fill="#e12579"/><path d="m231.914062 280.523438v40.566406c0 15.542968 11.175782 28.457031 25.925782 31.199218-.941406.175782-1.894532.316407-2.863282.410157-.925781.085937-1.859374.136719-2.808593.144531-.058594 0-.113281.007812-.171875.007812-17.539063 0-31.761719-14.222656-31.761719-31.761718v-40.566406zm0 0" fill="#ff61b5"/><path d="m252 284.523438c-2.207031 0-4-1.792969-4-4v-44.410157c0-2.207031 1.792969-4 4-4s4 1.792969 4 4v44.410157c0 2.210937-1.792969 4-4 4zm0 0" fill="#690589"/><path d="m252 356.851562c-19.71875 0-35.761719-16.042968-35.761719-35.761718v-38.191406c-23.59375-13.394532-37.949219-39.199219-36.753906-66.429688 1.644531-37.417969 32.253906-67.839844 69.6875-69.265625 19.957031-.75 38.824219 6.425781 53.167969 20.234375 14.347656 13.816406 22.25 32.386719 22.25 52.300781 0 26.277344-14.046875 50.257813-36.824219 63.160157v38.191406c-.003906 19.71875-16.046875 35.761718-35.765625 35.761718zm.023438-201.703124c-.847657 0-1.699219.015624-2.550782.050781-33.300781 1.265625-60.535156 28.332031-61.996094 61.621093-1.097656 24.960938 12.488282 48.574219 34.617188 60.160157 1.316406.691406 2.140625 2.054687 2.140625 3.542969v40.566406c0 15.304687 12.457031 27.761718 27.761719 27.761718 15.308594 0 27.765625-12.457031 27.765625-27.761718v-40.566406c0-1.488282.824219-2.851563 2.140625-3.542969 21.394531-11.203125 34.683594-33.132813 34.683594-57.242188 0-17.71875-7.035157-34.246093-19.800782-46.539062-12.144531-11.691407-27.960937-18.050781-44.761718-18.050781zm0 0" fill="#690589"/><path d="m252 356.851562c-19.71875 0-35.761719-16.042968-35.761719-35.761718v-40.566406c0-2.207032 1.792969-4 4-4h63.527344c2.207031 0 4 1.792968 4 4v40.566406c-.003906 19.71875-16.046875 35.761718-35.765625 35.761718zm-27.761719-72.328124v36.566406c0 15.304687 12.453125 27.761718 27.761719 27.761718s27.761719-12.457031 27.761719-27.761718v-36.566406zm0 0" fill="#690589"/><path d="m282.410156 305.890625h-60.816406c-2.210938 0-4-1.792969-4-4s1.789062-4 4-4h60.816406c2.207032 0 4 1.792969 4 4s-1.792968 4-4 4zm0 0" fill="#690589"/><path d="m282.410156 329.148438h-60.816406c-2.210938 0-4-1.792969-4-4 0-2.207032 1.789062-4 4-4h60.816406c2.207032 0 4 1.792968 4 4 0 2.207031-1.792968 4-4 4zm0 0" fill="#690589"/><path d="m262.597656 240.652344c0 5.851562-4.742187 10.597656-10.597656 10.597656-5.851562 0-10.597656-4.742188-10.597656-10.597656 0-5.855469 4.742187-10.597656 10.597656-10.597656 5.851562 0 10.597656 4.742187 10.597656 10.597656zm0 0" fill="#7bac51"/><path d="m252 255.25c-8.046875 0-14.597656-6.546875-14.597656-14.597656 0-8.050782 6.546875-14.597656 14.597656-14.597656s14.597656 6.546874 14.597656 14.597656c0 8.050781-6.550781 14.597656-14.597656 14.597656zm0-21.195312c-3.636719 0-6.597656 2.960937-6.597656 6.597656 0 3.636718 2.960937 6.597656 6.597656 6.597656s6.597656-2.960938 6.597656-6.597656c0-3.636719-2.960937-6.597656-6.597656-6.597656zm0 0" fill="#690589"/><path d="m49.929688 250.636719c0 12.683593-10.28125 22.964843-22.964844 22.964843s-22.964844-10.28125-22.964844-22.964843c0-12.679688 10.28125-22.960938 22.964844-22.960938s22.964844 10.28125 22.964844 22.960938zm0 0" fill="#fce06a"/><path d="m26.964844 277.601562c-14.867188 0-26.964844-12.09375-26.964844-26.964843 0-14.867188 12.097656-26.960938 26.964844-26.960938 14.867187 0 26.964844 12.09375 26.964844 26.960938 0 14.871093-12.09375 26.964843-26.964844 26.964843zm0-45.929687c-10.457032 0-18.964844 8.507813-18.964844 18.964844s8.507812 18.964843 18.964844 18.964843c10.457031 0 18.964844-8.507812 18.964844-18.964843s-8.507813-18.964844-18.964844-18.964844zm0 0" fill="#690589"/><path d="m70.167969 139.140625c-8.964844-8.96875-23.507813-8.96875-32.472657 0-8.96875 8.964844-8.96875 23.507813 0 32.472656 8.964844 8.96875 23.507813 8.96875 32.472657 0 8.96875-8.964843 8.96875-23.507812 0-32.472656zm0 0" fill="#fce06a"/><path d="m53.933594 182.34375c-14.867188 0-26.964844-12.097656-26.964844-26.964844 0-14.867187 12.097656-26.964844 26.964844-26.964844 14.867187 0 26.964844 12.097657 26.964844 26.964844 0 14.867188-12.097657 26.964844-26.964844 26.964844zm0-45.929688c-10.457032 0-18.964844 8.507813-18.964844 18.964844 0 10.457032 8.507812 18.964844 18.964844 18.964844 10.457031 0 18.964844-8.507812 18.964844-18.964844 0-10.457031-8.507813-18.964844-18.964844-18.964844zm0 0" fill="#690589"/><path d="m59.195312 326.292969c-12.339843-2.914063-24.710937 4.726562-27.625 17.070312-2.914062 12.34375 4.730469 24.710938 17.070313 27.625 12.34375 2.914063 24.714844-4.726562 27.628906-17.070312 2.914063-12.34375-4.730469-24.710938-17.074219-27.625zm0 0" fill="#fce06a"/><path d="m53.933594 375.585938c-14.867188 0-26.964844-12.097657-26.964844-26.964844 0-14.867188 12.097656-26.964844 26.964844-26.964844 14.867187 0 26.964844 12.097656 26.964844 26.964844 0 14.867187-12.097657 26.964844-26.964844 26.964844zm0-45.929688c-10.457032 0-18.964844 8.507812-18.964844 18.964844 0 10.453125 8.507812 18.964844 18.964844 18.964844 10.457031 0 18.964844-8.511719 18.964844-18.964844 0-10.457032-8.507813-18.964844-18.964844-18.964844zm0 0" fill="#690589"/><path d="m500 250.636719c0 12.683593-10.28125 22.964843-22.964844 22.964843s-22.964844-10.28125-22.964844-22.964843c0-12.679688 10.28125-22.960938 22.964844-22.960938s22.964844 10.28125 22.964844 22.960938zm0 0" fill="#dea42e"/><path d="m477.035156 277.601562c-14.867187 0-26.964844-12.09375-26.964844-26.964843 0-14.867188 12.097657-26.960938 26.964844-26.960938 14.867188 0 26.964844 12.09375 26.964844 26.960938 0 14.871093-12.097656 26.964843-26.964844 26.964843zm0-45.929687c-10.457031 0-18.964844 8.507813-18.964844 18.964844s8.507813 18.964843 18.964844 18.964843c10.457032 0 18.964844-8.507812 18.964844-18.964843s-8.507812-18.964844-18.964844-18.964844zm0 0" fill="#690589"/><path d="m466.300781 139.144531c-8.96875-8.96875-23.507812-8.96875-32.476562 0-8.96875 8.964844-8.96875 23.507813 0 32.472657 8.96875 8.96875 23.507812 8.96875 32.476562 0 8.964844-8.964844 8.964844-23.507813 0-32.472657zm0 0" fill="#dea42e"/><path d="m450.066406 182.34375c-14.867187 0-26.964844-12.097656-26.964844-26.964844 0-14.867187 12.097657-26.964844 26.964844-26.964844 14.867188 0 26.964844 12.097657 26.964844 26.964844 0 14.867188-12.097656 26.964844-26.964844 26.964844zm0-45.929688c-10.457031 0-18.964844 8.507813-18.964844 18.964844 0 10.457032 8.507813 18.964844 18.964844 18.964844 10.457032 0 18.964844-8.507812 18.964844-18.964844 0-10.457031-8.507812-18.964844-18.964844-18.964844zm0 0" fill="#690589"/><path d="m472.410156 343.304688c-2.914062-12.339844-15.285156-19.984376-27.625-17.070313-12.34375 2.914063-19.988281 15.28125-17.074218 27.625 2.914062 12.34375 15.285156 19.988281 27.628906 17.070313 12.339844-2.914063 19.984375-15.28125 17.070312-27.625zm0 0" fill="#dea42e"/><path d="m450.066406 375.585938c-14.867187 0-26.964844-12.097657-26.964844-26.964844 0-14.867188 12.097657-26.964844 26.964844-26.964844 14.867188 0 26.964844 12.097656 26.964844 26.964844 0 14.867187-12.097656 26.964844-26.964844 26.964844zm0-45.929688c-10.457031 0-18.964844 8.507812-18.964844 18.964844 0 10.453125 8.507813 18.964844 18.964844 18.964844 10.457032 0 18.964844-8.511719 18.964844-18.964844 0-10.457032-8.507812-18.964844-18.964844-18.964844zm0 0" fill="#690589"/><path d="m273.601562 477.035156c0 12.683594-10.28125 22.964844-22.964843 22.964844-12.679688 0-22.960938-10.28125-22.960938-22.964844s10.28125-22.964844 22.960938-22.964844c12.683593 0 22.964843 10.28125 22.964843 22.964844zm0 0" fill="#fcc24c"/><path d="m250.636719 504c-14.867188 0-26.960938-12.097656-26.960938-26.964844 0-14.867187 12.09375-26.964844 26.960938-26.964844 14.871093 0 26.964843 12.097657 26.964843 26.964844 0 14.867188-12.09375 26.964844-26.964843 26.964844zm0-45.929688c-10.457031 0-18.960938 8.507813-18.960938 18.964844 0 10.453125 8.503907 18.964844 18.960938 18.964844 10.460937 0 18.964843-8.507812 18.964843-18.964844 0-10.457031-8.507812-18.964844-18.964843-18.964844zm0 0" fill="#690589"/><path d="m171.613281 433.828125c-8.96875-8.96875-23.507812-8.96875-32.476562 0-8.96875 8.964844-8.96875 23.507813 0 32.472656 8.96875 8.96875 23.507812 8.96875 32.476562 0 8.964844-8.964843 8.964844-23.507812 0-32.472656zm0 0" fill="#fcc24c"/><path d="m155.378906 477.03125c-14.867187 0-26.964844-12.09375-26.964844-26.964844 0-14.867187 12.097657-26.960937 26.964844-26.960937 14.867188 0 26.964844 12.09375 26.964844 26.960937 0 14.871094-12.097656 26.964844-26.964844 26.964844zm0-45.929688c-10.457031 0-18.964844 8.507813-18.964844 18.964844 0 10.457032 8.507813 18.964844 18.964844 18.964844 10.457032 0 18.964844-8.507812 18.964844-18.964844 0-10.457031-8.507812-18.964844-18.964844-18.964844zm0 0" fill="#690589"/><path d="m353.894531 427.757812c-12.34375-2.914062-24.714843 4.726563-27.628906 17.070313s4.730469 24.710937 17.074219 27.625c12.339844 2.914063 24.710937-4.726563 27.625-17.070313 2.914062-12.34375-4.730469-24.710937-17.070313-27.625zm0 0" fill="#fcc24c"/><path d="m348.621094 477.03125c-14.867188 0-26.964844-12.09375-26.964844-26.964844 0-14.867187 12.097656-26.960937 26.964844-26.960937 14.867187 0 26.964844 12.09375 26.964844 26.960937 0 14.871094-12.097657 26.964844-26.964844 26.964844zm0-45.929688c-10.457032 0-18.964844 8.507813-18.964844 18.964844 0 10.457032 8.507812 18.964844 18.964844 18.964844 10.457031 0 18.964844-8.507812 18.964844-18.964844 0-10.457031-8.507813-18.964844-18.964844-18.964844zm0 0" fill="#690589"/><path d="m273.601562 26.964844c0 12.683594-10.28125 22.964844-22.964843 22.964844-12.679688 0-22.960938-10.28125-22.960938-22.964844s10.28125-22.964844 22.960938-22.964844c12.683593 0 22.964843 10.28125 22.964843 22.964844zm0 0" fill="#fcc24c"/><path d="m250.636719 53.929688c-14.867188 0-26.960938-12.09375-26.960938-26.964844 0-14.867188 12.09375-26.964844 26.960938-26.964844 14.871093 0 26.964843 12.097656 26.964843 26.964844 0 14.867187-12.09375 26.964844-26.964843 26.964844zm0-45.929688c-10.457031 0-18.960938 8.507812-18.960938 18.964844 0 10.457031 8.507813 18.964844 18.960938 18.964844 10.457031 0 18.964843-8.507813 18.964843-18.964844 0-10.457032-8.507812-18.964844-18.964843-18.964844zm0 0" fill="#690589"/><path d="m171.613281 37.695312c-8.964843-8.964843-23.507812-8.964843-32.472656 0-8.96875 8.96875-8.96875 23.507813 0 32.476563 8.964844 8.96875 23.507813 8.96875 32.472656 0 8.96875-8.96875 8.96875-23.507813 0-32.476563zm0 0" fill="#fcc24c"/><path d="m155.378906 80.898438c-14.867187 0-26.964844-12.097657-26.964844-26.964844 0-14.867188 12.097657-26.964844 26.964844-26.964844 14.867188 0 26.964844 12.097656 26.964844 26.964844 0 14.867187-12.097656 26.964844-26.964844 26.964844zm0-45.929688c-10.457031 0-18.964844 8.507812-18.964844 18.964844 0 10.453125 8.507813 18.960937 18.964844 18.960937 10.457032 0 18.964844-8.507812 18.964844-18.960937 0-10.457032-8.507812-18.964844-18.964844-18.964844zm0 0" fill="#690589"/><path d="m370.957031 48.636719c-2.914062-12.34375-15.285156-19.984375-27.625-17.070313-12.34375 2.914063-19.988281 15.28125-17.074219 27.625 2.914063 12.34375 15.285157 19.984375 27.625 17.070313 12.34375-2.914063 19.988282-15.28125 17.074219-27.625zm0 0" fill="#fcc24c"/><path d="m348.621094 80.898438c-14.867188 0-26.964844-12.097657-26.964844-26.964844 0-14.867188 12.097656-26.964844 26.964844-26.964844 14.867187 0 26.964844 12.097656 26.964844 26.964844 0 14.867187-12.097657 26.964844-26.964844 26.964844zm0-45.929688c-10.457032 0-18.964844 8.507812-18.964844 18.964844 0 10.453125 8.507812 18.960937 18.964844 18.960937 10.457031 0 18.964844-8.507812 18.964844-18.960937 0-10.457032-8.507813-18.964844-18.964844-18.964844zm0 0" fill="#690589"/></svg>